<svg width="250" height="250" viewBox="0 0 250 250" fill="none" xmlns="http://www.w3.org/2000/svg">
<rect width="250" height="250" rx="20" fill="black"/>
<path d="M178.369 125.714L138.973 111.199L124.458 71.802C123.353 68.803 121.355 66.2149 118.733 64.3868C116.112 62.5587 112.992 61.5786 109.796 61.5786C106.6 61.5786 103.481 62.5587 100.859 64.3868C98.2378 66.2149 96.2398 68.803 95.135 71.802L80.6201 111.199L41.2234 125.714C38.2244 126.818 35.6363 128.816 33.8082 131.438C31.9801 134.06 31 137.179 31 140.375C31 143.571 31.9801 146.69 33.8082 149.312C35.6363 151.934 38.2244 153.932 41.2234 155.036L80.6201 169.551L95.135 208.948C96.2398 211.947 98.2378 214.535 100.859 216.363C103.481 218.191 106.6 219.171 109.796 219.171C112.992 219.171 116.112 218.191 118.733 216.363C121.355 214.535 123.353 211.947 124.458 208.948L138.973 169.551L178.369 155.036C181.368 153.932 183.956 151.934 185.785 149.312C187.613 146.69 188.593 143.571 188.593 140.375C188.593 137.179 187.613 134.06 185.785 131.438C183.956 128.816 181.368 126.818 178.369 125.714ZM131.138 152.455C129.015 153.236 127.088 154.468 125.489 156.067C123.889 157.666 122.657 159.594 121.877 161.717L121.878 161.716L109.796 194.507L97.716 161.717C96.9358 159.594 95.7036 157.667 94.1045 156.068C92.5055 154.469 90.578 153.236 88.4554 152.456L55.6643 140.375L88.4547 128.295C90.5772 127.514 92.5047 126.282 94.1038 124.683C95.7028 123.084 96.9351 121.157 97.7152 119.034L109.796 86.2429L121.877 119.033C122.657 121.156 123.889 123.083 125.488 124.682C127.087 126.281 129.015 127.514 131.137 128.294L163.928 140.375L131.138 152.455ZM131.671 59.125C131.672 56.6386 132.659 54.2541 134.417 52.496C136.176 50.7379 138.56 49.7501 141.046 49.75H150.421V40.375C150.421 37.8886 151.409 35.504 153.167 33.7459C154.925 31.9877 157.31 31 159.796 31C162.283 31 164.667 31.9877 166.426 33.7459C168.184 35.504 169.171 37.8886 169.171 40.375V49.75H178.546C181.033 49.75 183.417 50.7377 185.176 52.4959C186.934 54.254 187.921 56.6386 187.921 59.125C187.921 61.6114 186.934 63.996 185.176 65.7541C183.417 67.5123 181.033 68.5 178.546 68.5H169.171V77.875C169.171 80.3614 168.184 82.746 166.426 84.5041C164.667 86.2623 162.283 87.25 159.796 87.25C157.31 87.25 154.925 86.2623 153.167 84.5041C151.409 82.746 150.421 80.3614 150.421 77.875V68.5H141.046C138.56 68.4999 136.176 67.5121 134.417 65.754C132.659 63.9959 131.672 61.6114 131.671 59.125ZM219.171 96.625C219.171 99.1114 218.184 101.496 216.425 103.254C214.667 105.012 212.283 106 209.796 106H206.671V109.125C206.671 111.611 205.684 113.996 203.926 115.754C202.167 117.512 199.783 118.5 197.296 118.5C194.81 118.5 192.425 117.512 190.667 115.754C188.909 113.996 187.921 111.611 187.921 109.125V106H184.796C182.31 106 179.925 105.012 178.167 103.254C176.409 101.496 175.421 99.1114 175.421 96.625C175.421 94.1386 176.409 91.754 178.167 89.9959C179.925 88.2377 182.31 87.25 184.796 87.25H187.921V84.125C187.921 81.6386 188.909 79.254 190.667 77.4959C192.425 75.7377 194.81 74.75 197.296 74.75C199.783 74.75 202.167 75.7377 203.926 77.4959C205.684 79.254 206.671 81.6386 206.671 84.125V87.25H209.796C212.283 87.2501 214.667 88.2379 216.425 89.996C218.184 91.7541 219.171 94.1386 219.171 96.625Z" fill="#5B4EFB"/>
</svg>
